# xmcd
#
# Track frame offsets:
#	182
#	16197
#	28620
#
# Disc length: 564 seconds
#
# Revision: 0
# Processed by: cddbd v1.5.2PL0 Copyright (c) Steve Scherf et al.
# Submitted via: audiograbber 1.83.01
#
DISCID=16023203
DTITLE=Geschwandtner - 1000 und ein Gefühl
DYEAR=2000
DGENRE=Volksmusik
TTITLE0=1000 und ein Gefühl
TTITLE1=Pretty Sussana
TTITLE2=Sonst ist alles klar
EXTD=<http://www.hit-radio24.de>
EXTT0=
EXTT1=
EXTT2=
PLAYORDER=
